# xmcd
#
# Track frame offsets: 
#        182
#        53295
#        74650
#        80385
#        94950
#        110172
#        135365
#        156612
#        160480
#        167817
#        186492
#        226955
#
# Disc length: 3630 seconds
#
# Revision: 6
# Processed by: cddbd v1.5.2PL0 Copyright (c) Steve Scherf et al.
# Submitted via: ExactAudioCopy v0.99pb4
#
DISCID=a70e2c0c
DTITLE=Rafael Kubelik - Mendelssohn: "A Midsummer Night's Dream" Op. 2
DTITLE=1 and Op. 61
DYEAR=1964
DGENRE=Classical
TTITLE0=Overture - Allegro di molto
TTITLE1=Scherzo: Allegro vivace
TTITLE2=Fairies' March: Allegro vivace
TTITLE3=Song With Chorus: Allegro ma non troppo - "You spotted snakes"
TTITLE4=Intermezzo: Allegro appasionato
TTITLE5=Notturno: Con moto tranquillo
TTITLE6=Wedding March: Allegro vivace
TTITLE7=Funeral March: Andante comodo
TTITLE8=Dance of the Clowns: Allegro di molto
TTITLE9=Finale: Allegro di molto - "Through the House Give Glimmering 
TTITLE9=Light"
TTITLE10=Weber - Overture to "Oberon"
TTITLE11=Weber - Overture to "Der Freischutz"
EXTD=Incidental Music To Shakespeare's Play Op.21 and Op.61\nTracks 11 &
EXTD=12 by Carl Maria Von Weber YEAR: 1964
EXTT0=
EXTT1=
EXTT2=
EXTT3=
EXTT4=
EXTT5=
EXTT6=
EXTT7=
EXTT8=
EXTT9=
EXTT10=
EXTT11=
PLAYORDER=
